# xmcd
#
# Track frame offsets:
# 150
# 8726
# 18397
# 26573
# 34765
# 46231
# 55132
# 65757
# 75219
# 88113
# 98844
# 107735
# 118840
# 129258
# 140800
# 152993
# 171526
# 185435
# 199352
# 212606
# 230314
# 241692
#
# Disc length: 3347 seconds
#
#
# Revision: 0
# Processed by: cddbd v1.5.2PL0 Copyright (c) Steve Scherf et al.
# Submitted via: FreeRIP 2.951 
#
DISCID=290d1116
DTITLE=Roger Miller - All Time Greatest Hits
DYEAR=2003
DGENRE=Country
TTITLE0=Dang Me
TTITLE1=Chug-A-Lug
TTITLE2=Do-Wacka-Do
TTITLE3=In The Summertime (You Don't Want My Love)
TTITLE4=King Of The Road
TTITLE5=You Can't Roller Skate In A Buffalo Herd
TTITLE6=Engine Engine #9
TTITLE7=One Dying And A Burying
TTITLE8=Last Word In Lonesome Is Me
TTITLE9=Kansas City Star
TTITLE10=England Swings
TTITLE11=Husbands And Wives
TTITLE12=I've Been A Long Leavin' (But I'll Be A Long Time Gone)
TTITLE13=Walkin' In The Sunshine
TTITLE14=Little Green Apples
TTITLE15=Me And Bobby McGee
TTITLE16=Where Have All The Average People Gone
TTITLE17=South
TTITLE18=Tomorrow Night In Baltimore
TTITLE19=River In The Rain
TTITLE20=I'm A Nut
TTITLE21=Old Toy Trains
EXTD=
EXTT0=
EXTT1=
EXTT2=
EXTT3=
EXTT4=
EXTT5=
EXTT6=
EXTT7=
EXTT8=
EXTT9=
EXTT10=
EXTT11=
EXTT12=
EXTT13=
EXTT14=
EXTT15=
EXTT16=
EXTT17=
EXTT18=
EXTT19=
EXTT20=
EXTT21=
PLAYORDER=
